<mxfile host="app.diagrams.net" modified="2023-02-08T14:58:28.264Z" agent="5.0 (Windows NT 10.0; Win64; x64) AppleWebKit/537.36 (KHTML, like Gecko) Chrome/109.0.0.0 Safari/537.36" etag="XRl5bWLEpPE7Q26P_FTn" version="20.8.18" type="github">
  <diagram id="C5RBs43oDa-KdzZeNtuy" name="Page-1">
    <mxGraphModel dx="1434" dy="796" grid="1" gridSize="10" guides="1" tooltips="1" connect="1" arrows="1" fold="1" page="1" pageScale="1" pageWidth="900" pageHeight="1600" math="0" shadow="0">
      <root>
        <mxCell id="WIyWlLk6GJQsqaUBKTNV-0" />
        <mxCell id="WIyWlLk6GJQsqaUBKTNV-1" parent="WIyWlLk6GJQsqaUBKTNV-0" />
        <mxCell id="WIyWlLk6GJQsqaUBKTNV-2" value="" style="rounded=0;html=1;jettySize=auto;orthogonalLoop=1;fontSize=11;endArrow=block;endFill=0;endSize=8;strokeWidth=1;shadow=0;labelBackgroundColor=none;edgeStyle=orthogonalEdgeStyle;" parent="WIyWlLk6GJQsqaUBKTNV-1" source="WIyWlLk6GJQsqaUBKTNV-3" edge="1">
          <mxGeometry relative="1" as="geometry">
            <mxPoint x="180" y="130" as="targetPoint" />
          </mxGeometry>
        </mxCell>
        <mxCell id="WIyWlLk6GJQsqaUBKTNV-3" value="Start" style="rounded=1;whiteSpace=wrap;html=1;fontSize=12;glass=0;strokeWidth=1;shadow=0;" parent="WIyWlLk6GJQsqaUBKTNV-1" vertex="1">
          <mxGeometry x="120" y="40" width="120" height="40" as="geometry" />
        </mxCell>
        <mxCell id="LA3YLyP6GCAdj-vo8gi--0" value="Get User&#39;s Choice" style="shape=parallelogram;perimeter=parallelogramPerimeter;whiteSpace=wrap;html=1;fixedSize=1;" vertex="1" parent="WIyWlLk6GJQsqaUBKTNV-1">
          <mxGeometry x="120" y="130" width="120" height="60" as="geometry" />
        </mxCell>
        <mxCell id="LA3YLyP6GCAdj-vo8gi--3" value="" style="rounded=0;html=1;jettySize=auto;orthogonalLoop=1;fontSize=11;endArrow=block;endFill=0;endSize=8;strokeWidth=1;shadow=0;labelBackgroundColor=none;edgeStyle=orthogonalEdgeStyle;exitX=0.5;exitY=1;exitDx=0;exitDy=0;" edge="1" parent="WIyWlLk6GJQsqaUBKTNV-1" source="LA3YLyP6GCAdj-vo8gi--0">
          <mxGeometry relative="1" as="geometry">
            <mxPoint x="190" y="210" as="sourcePoint" />
            <mxPoint x="190" y="250" as="targetPoint" />
          </mxGeometry>
        </mxCell>
        <mxCell id="LA3YLyP6GCAdj-vo8gi--6" value="Computer Generates a choice randomly" style="rounded=1;whiteSpace=wrap;html=1;" vertex="1" parent="WIyWlLk6GJQsqaUBKTNV-1">
          <mxGeometry x="130" y="250" width="120" height="60" as="geometry" />
        </mxCell>
        <mxCell id="LA3YLyP6GCAdj-vo8gi--10" value="" style="rounded=0;html=1;jettySize=auto;orthogonalLoop=1;fontSize=11;endArrow=block;endFill=0;endSize=8;strokeWidth=1;shadow=0;labelBackgroundColor=none;edgeStyle=orthogonalEdgeStyle;exitX=0.5;exitY=1;exitDx=0;exitDy=0;" edge="1" parent="WIyWlLk6GJQsqaUBKTNV-1" source="LA3YLyP6GCAdj-vo8gi--6">
          <mxGeometry relative="1" as="geometry">
            <mxPoint x="180" y="420" as="sourcePoint" />
            <mxPoint x="180" y="380" as="targetPoint" />
            <Array as="points">
              <mxPoint x="190" y="330" />
              <mxPoint x="180" y="330" />
            </Array>
          </mxGeometry>
        </mxCell>
        <mxCell id="LA3YLyP6GCAdj-vo8gi--12" value="&amp;nbsp; &amp;nbsp;Did User Choose Rock?" style="rhombus;whiteSpace=wrap;html=1;" vertex="1" parent="WIyWlLk6GJQsqaUBKTNV-1">
          <mxGeometry x="110" y="390" width="140" height="80" as="geometry" />
        </mxCell>
        <mxCell id="LA3YLyP6GCAdj-vo8gi--16" value="" style="endArrow=classic;html=1;rounded=0;exitX=1;exitY=0.5;exitDx=0;exitDy=0;" edge="1" parent="WIyWlLk6GJQsqaUBKTNV-1" source="LA3YLyP6GCAdj-vo8gi--12">
          <mxGeometry relative="1" as="geometry">
            <mxPoint x="264" y="429.5" as="sourcePoint" />
            <mxPoint x="364" y="429.5" as="targetPoint" />
          </mxGeometry>
        </mxCell>
        <mxCell id="LA3YLyP6GCAdj-vo8gi--17" value="no" style="edgeLabel;resizable=0;html=1;align=center;verticalAlign=middle;" connectable="0" vertex="1" parent="LA3YLyP6GCAdj-vo8gi--16">
          <mxGeometry relative="1" as="geometry" />
        </mxCell>
        <mxCell id="LA3YLyP6GCAdj-vo8gi--18" value="&amp;nbsp; Did User Choose Paper?" style="rhombus;whiteSpace=wrap;html=1;" vertex="1" parent="WIyWlLk6GJQsqaUBKTNV-1">
          <mxGeometry x="370" y="390" width="140" height="80" as="geometry" />
        </mxCell>
        <mxCell id="LA3YLyP6GCAdj-vo8gi--19" value="" style="endArrow=classic;html=1;rounded=0;exitX=1;exitY=0.5;exitDx=0;exitDy=0;" edge="1" parent="WIyWlLk6GJQsqaUBKTNV-1" source="LA3YLyP6GCAdj-vo8gi--18">
          <mxGeometry relative="1" as="geometry">
            <mxPoint x="520" y="430" as="sourcePoint" />
            <mxPoint x="634" y="429.5" as="targetPoint" />
          </mxGeometry>
        </mxCell>
        <mxCell id="LA3YLyP6GCAdj-vo8gi--20" value="no" style="edgeLabel;resizable=0;html=1;align=center;verticalAlign=middle;" connectable="0" vertex="1" parent="LA3YLyP6GCAdj-vo8gi--19">
          <mxGeometry relative="1" as="geometry" />
        </mxCell>
        <mxCell id="LA3YLyP6GCAdj-vo8gi--21" value="Did User Choose Scissors?" style="rhombus;whiteSpace=wrap;html=1;" vertex="1" parent="WIyWlLk6GJQsqaUBKTNV-1">
          <mxGeometry x="640" y="390" width="140" height="80" as="geometry" />
        </mxCell>
        <mxCell id="LA3YLyP6GCAdj-vo8gi--22" value="" style="endArrow=classic;html=1;rounded=0;exitX=0.5;exitY=1;exitDx=0;exitDy=0;" edge="1" parent="WIyWlLk6GJQsqaUBKTNV-1" source="LA3YLyP6GCAdj-vo8gi--21">
          <mxGeometry relative="1" as="geometry">
            <mxPoint x="680" y="490" as="sourcePoint" />
            <mxPoint x="710" y="540" as="targetPoint" />
          </mxGeometry>
        </mxCell>
        <mxCell id="LA3YLyP6GCAdj-vo8gi--23" value="yes" style="edgeLabel;resizable=0;html=1;align=center;verticalAlign=middle;" connectable="0" vertex="1" parent="LA3YLyP6GCAdj-vo8gi--22">
          <mxGeometry relative="1" as="geometry" />
        </mxCell>
        <mxCell id="LA3YLyP6GCAdj-vo8gi--25" value="" style="endArrow=classic;html=1;rounded=0;exitX=0.5;exitY=1;exitDx=0;exitDy=0;" edge="1" parent="WIyWlLk6GJQsqaUBKTNV-1">
          <mxGeometry relative="1" as="geometry">
            <mxPoint x="179.5" y="470" as="sourcePoint" />
            <mxPoint x="179.5" y="540" as="targetPoint" />
          </mxGeometry>
        </mxCell>
        <mxCell id="LA3YLyP6GCAdj-vo8gi--26" value="yes" style="edgeLabel;resizable=0;html=1;align=center;verticalAlign=middle;" connectable="0" vertex="1" parent="LA3YLyP6GCAdj-vo8gi--25">
          <mxGeometry relative="1" as="geometry" />
        </mxCell>
        <mxCell id="LA3YLyP6GCAdj-vo8gi--27" value="&amp;nbsp; &amp;nbsp; &amp;nbsp; Did Computer Choose Rock?" style="rhombus;whiteSpace=wrap;html=1;" vertex="1" parent="WIyWlLk6GJQsqaUBKTNV-1">
          <mxGeometry x="110" y="545" width="140" height="80" as="geometry" />
        </mxCell>
        <mxCell id="LA3YLyP6GCAdj-vo8gi--28" value="" style="endArrow=classic;html=1;rounded=0;exitX=0;exitY=0.5;exitDx=0;exitDy=0;" edge="1" parent="WIyWlLk6GJQsqaUBKTNV-1" source="LA3YLyP6GCAdj-vo8gi--27">
          <mxGeometry relative="1" as="geometry">
            <mxPoint x="80" y="580" as="sourcePoint" />
            <mxPoint x="80" y="680" as="targetPoint" />
            <Array as="points">
              <mxPoint x="80" y="585" />
            </Array>
          </mxGeometry>
        </mxCell>
        <mxCell id="LA3YLyP6GCAdj-vo8gi--29" value="yes" style="edgeLabel;resizable=0;html=1;align=center;verticalAlign=middle;" connectable="0" vertex="1" parent="LA3YLyP6GCAdj-vo8gi--28">
          <mxGeometry relative="1" as="geometry" />
        </mxCell>
        <mxCell id="LA3YLyP6GCAdj-vo8gi--30" value="Draw" style="shape=parallelogram;perimeter=parallelogramPerimeter;whiteSpace=wrap;html=1;fixedSize=1;" vertex="1" parent="WIyWlLk6GJQsqaUBKTNV-1">
          <mxGeometry x="30" y="690" width="90" height="40" as="geometry" />
        </mxCell>
        <mxCell id="LA3YLyP6GCAdj-vo8gi--31" value="" style="endArrow=classic;html=1;rounded=0;exitX=1;exitY=0.5;exitDx=0;exitDy=0;" edge="1" parent="WIyWlLk6GJQsqaUBKTNV-1" source="LA3YLyP6GCAdj-vo8gi--27">
          <mxGeometry relative="1" as="geometry">
            <mxPoint x="380" y="570" as="sourcePoint" />
            <mxPoint x="250" y="650" as="targetPoint" />
          </mxGeometry>
        </mxCell>
        <mxCell id="LA3YLyP6GCAdj-vo8gi--32" value="no" style="edgeLabel;resizable=0;html=1;align=center;verticalAlign=middle;" connectable="0" vertex="1" parent="LA3YLyP6GCAdj-vo8gi--31">
          <mxGeometry relative="1" as="geometry" />
        </mxCell>
        <mxCell id="LA3YLyP6GCAdj-vo8gi--34" value="Did Computer Choose Paper?" style="rhombus;whiteSpace=wrap;html=1;" vertex="1" parent="WIyWlLk6GJQsqaUBKTNV-1">
          <mxGeometry x="210" y="640" width="120" height="80" as="geometry" />
        </mxCell>
        <mxCell id="LA3YLyP6GCAdj-vo8gi--35" value="" style="endArrow=classic;html=1;rounded=0;exitX=0;exitY=0.5;exitDx=0;exitDy=0;" edge="1" parent="WIyWlLk6GJQsqaUBKTNV-1" source="LA3YLyP6GCAdj-vo8gi--34">
          <mxGeometry relative="1" as="geometry">
            <mxPoint x="170" y="740" as="sourcePoint" />
            <mxPoint x="180" y="790" as="targetPoint" />
            <Array as="points">
              <mxPoint x="180" y="680" />
            </Array>
          </mxGeometry>
        </mxCell>
        <mxCell id="LA3YLyP6GCAdj-vo8gi--36" value="yes" style="edgeLabel;resizable=0;html=1;align=center;verticalAlign=middle;" connectable="0" vertex="1" parent="LA3YLyP6GCAdj-vo8gi--35">
          <mxGeometry relative="1" as="geometry" />
        </mxCell>
        <mxCell id="LA3YLyP6GCAdj-vo8gi--37" value="Computer Win" style="shape=parallelogram;perimeter=parallelogramPerimeter;whiteSpace=wrap;html=1;fixedSize=1;" vertex="1" parent="WIyWlLk6GJQsqaUBKTNV-1">
          <mxGeometry x="130" y="800" width="100" height="40" as="geometry" />
        </mxCell>
        <mxCell id="LA3YLyP6GCAdj-vo8gi--38" value="" style="endArrow=classic;html=1;rounded=0;" edge="1" parent="WIyWlLk6GJQsqaUBKTNV-1">
          <mxGeometry relative="1" as="geometry">
            <mxPoint x="330" y="680" as="sourcePoint" />
            <mxPoint x="330" y="730" as="targetPoint" />
          </mxGeometry>
        </mxCell>
        <mxCell id="LA3YLyP6GCAdj-vo8gi--39" value="no" style="edgeLabel;resizable=0;html=1;align=center;verticalAlign=middle;" connectable="0" vertex="1" parent="LA3YLyP6GCAdj-vo8gi--38">
          <mxGeometry relative="1" as="geometry" />
        </mxCell>
        <mxCell id="LA3YLyP6GCAdj-vo8gi--40" value="User Win" style="shape=parallelogram;perimeter=parallelogramPerimeter;whiteSpace=wrap;html=1;fixedSize=1;" vertex="1" parent="WIyWlLk6GJQsqaUBKTNV-1">
          <mxGeometry x="280" y="740" width="100" height="40" as="geometry" />
        </mxCell>
      </root>
    </mxGraphModel>
  </diagram>
</mxfile>
